<svg width="16" height="16" viewBox="0 0 16 16" fill="none" xmlns="http://www.w3.org/2000/svg">
<path d="M4.18812 13.5495C4.12797 13.6131 4.08095 13.688 4.04974 13.7698C4.01853 13.8516 4.00374 13.9388 4.00622 14.0263C4.0087 14.1139 4.02839 14.2001 4.06418 14.28C4.09996 14.3599 4.15114 14.432 4.21479 14.4922C4.27843 14.5523 4.3533 14.5993 4.43512 14.6305C4.51694 14.6617 4.60411 14.6765 4.69164 14.6741C4.77918 14.6716 4.86537 14.6519 4.94529 14.6161C5.02521 14.5803 5.09731 14.5291 5.15745 14.4655L10.8241 8.46548C10.9411 8.3417 11.0063 8.17782 11.0063 8.00748C11.0063 7.83714 10.9411 7.67326 10.8241 7.54948L5.15745 1.54882C5.0977 1.48378 5.02563 1.43125 4.94541 1.3943C4.86519 1.35736 4.77843 1.33671 4.69017 1.33358C4.6019 1.33044 4.5139 1.34487 4.43126 1.37604C4.34862 1.4072 4.273 1.45448 4.20879 1.51511C4.14457 1.57575 4.09305 1.64854 4.0572 1.72926C4.02136 1.80998 4.00191 1.89701 3.99999 1.98531C3.99806 2.07361 4.01371 2.16141 4.046 2.24361C4.0783 2.32581 4.1266 2.40078 4.18812 2.46415L9.42279 8.00748L4.18812 13.5495Z" fill="#797271"/>
</svg>
