<svg width="400" height="71" viewBox="0 0 400 71" fill="none" xmlns="http://www.w3.org/2000/svg">
<path fill-rule="evenodd" clip-rule="evenodd" d="M34.9902 11.4645C33.0161 11.1944 31.1563 9.33461 30.8862 7.36055C30.642 5.5787 29.8368 3.86438 28.4654 2.49812C25.125 -0.842203 19.6964 -0.831819 16.3404 2.52409C12.9845 5.88 12.9741 11.3087 16.3145 14.649C17.6807 16.0153 19.4002 16.8205 21.1821 17.0698C23.1562 17.34 25.0159 19.1998 25.2861 21.1738C25.5302 22.9557 26.3354 24.67 27.7069 26.0362C31.0472 29.3766 36.4759 29.3662 39.8318 26.0103C43.1877 22.6544 43.1981 17.2257 39.8578 13.8854C38.4915 12.5191 36.772 11.7139 34.9902 11.4645Z" fill="#E396A1"/>
<path fill-rule="evenodd" clip-rule="evenodd" d="M48.8105 53.0612C46.8365 52.7911 44.9767 50.9313 44.7066 48.9572C44.4624 47.1754 43.6572 45.4611 42.2857 44.0948C38.9454 40.7545 33.5167 40.7649 30.1608 44.1208C26.8049 47.4767 26.7945 52.9054 30.1348 56.2457C31.5011 57.6119 33.2206 58.4172 35.0025 58.6665C36.9765 58.9366 38.8363 60.7964 39.1064 62.7705C39.3506 64.5523 40.1558 66.2667 41.5273 67.6329C44.8676 70.9733 50.2963 70.9629 53.6522 67.6069C57.0081 64.251 57.0185 58.8224 53.6782 55.482C52.3119 54.1158 50.5924 53.3106 48.8105 53.0612Z" fill="#B2CE7C"/>
<path fill-rule="evenodd" clip-rule="evenodd" d="M58.6675 35.2002C58.9376 33.2261 60.7974 31.3663 62.7715 31.0962C64.5533 30.852 66.2676 30.0468 67.6391 28.6754C70.9794 25.335 70.969 19.9064 67.6131 16.5505C64.2572 13.1945 58.8285 13.1842 55.4882 16.5245C54.122 17.8908 53.3167 19.6103 53.0674 21.3869C52.7972 23.361 50.9375 25.2208 48.9634 25.4909C47.1816 25.7351 45.4672 26.5403 44.0958 27.9117C40.7555 31.252 40.7658 36.6807 44.1217 40.0366C47.4777 43.3925 52.9063 43.4029 56.2467 40.0626C57.6129 38.6964 58.4181 36.9768 58.6675 35.2002Z" fill="#F2C56B"/>
<path fill-rule="evenodd" clip-rule="evenodd" d="M17.0698 49.0283C17.34 47.0543 19.1998 45.1945 21.1738 44.9243C22.9557 44.6802 24.67 43.875 26.0414 42.5035C29.3818 39.1632 29.3714 33.7345 26.0155 30.3786C22.6596 27.0227 17.2309 27.0123 13.8906 30.3526C12.5243 31.7189 11.7191 33.4384 11.4697 35.215C11.1996 37.1891 9.33981 39.0489 7.36575 39.319C5.5839 39.5632 3.86958 40.3684 2.49812 41.7398C-0.842206 45.0802 -0.831816 50.5089 2.52409 53.8648C5.88001 57.2207 11.3087 57.2311 14.649 53.8907C16.0153 52.5245 16.8205 50.805 17.0698 49.0283Z" fill="#8ECCED"/>
<path fill-rule="evenodd" clip-rule="evenodd" d="M118.979 13.8187C118.179 13.7512 117.374 13.7148 116.558 13.7148C100.958 13.7148 88.3084 26.3437 88.3084 41.9232C88.3084 57.5027 100.958 70.1315 116.558 70.1315C132.158 70.1315 144.371 57.9339 144.797 42.7284H133.488C133.067 51.7 125.649 58.8482 116.558 58.8482C107.467 58.8482 99.6072 51.2688 99.6072 41.9232C99.6072 32.5776 107.197 24.9982 116.558 24.9982C117.379 24.9982 118.189 25.0553 118.979 25.1696V13.8187Z" fill="#797271"/>
<path fill-rule="evenodd" clip-rule="evenodd" d="M181.341 58.6713C189.486 58.6713 196.094 52.0738 196.094 43.9386C196.094 35.8033 189.491 29.2058 181.341 29.2058C173.19 29.2058 166.587 35.8033 166.587 43.9386C166.587 52.0738 173.19 58.6713 181.341 58.6713ZM155.117 43.9386C155.117 58.4064 166.857 70.1313 181.346 70.1313C195.834 70.1313 207.575 58.4064 207.575 43.9386C207.575 29.4707 195.834 17.7458 181.346 17.7458C166.857 17.7458 155.117 29.4707 155.117 43.9386Z" fill="#797271"/>
<path fill-rule="evenodd" clip-rule="evenodd" d="M244.038 58.7232C237.108 57.2635 231.934 51.4971 231.934 44.6139L231.753 0H219.648L219.83 44.6139C219.83 57.7258 230.391 68.5468 244.038 70.1313V58.7232Z" fill="#797271"/>
<path fill-rule="evenodd" clip-rule="evenodd" d="M340.417 58.7232C334.064 57.2635 329.321 51.4971 329.321 44.6139L329.139 0H318.043L318.225 44.6139C318.225 57.7258 327.908 68.5468 340.417 70.1313V58.7232Z" fill="#797271"/>
<path fill-rule="evenodd" clip-rule="evenodd" d="M295.483 64.9727V68.1156H305.571V37.8916H294.537V44.3385C294.537 52.349 288.184 58.8479 280.35 58.8479C272.516 58.8479 266.163 52.3542 266.163 44.3385V37.8916H255.129V44.3385C255.129 58.5829 266.417 70.1312 280.345 70.1312C286.023 70.1312 291.259 68.2143 295.478 64.9727H295.483Z" fill="#797271"/>
<path fill-rule="evenodd" clip-rule="evenodd" d="M389.911 64.9727V68.1156H400V37.8916H388.966V44.3385C388.966 52.349 382.612 58.8479 374.778 58.8479C366.944 58.8479 360.596 52.3542 360.596 44.3385V37.8916H349.562V44.3385C349.562 58.5829 360.856 70.1312 374.778 70.1312C380.456 70.1312 385.693 68.2143 389.911 64.9727Z" fill="#797271"/>
</svg>
