<svg width="32" height="33" viewBox="0 0 32 33" fill="none" xmlns="http://www.w3.org/2000/svg">
<path fill-rule="evenodd" clip-rule="evenodd" d="M16 10.0385C14.2319 10.0385 12.5362 10.7408 11.2859 11.9911C10.0357 13.2413 9.33331 14.937 9.33331 16.7051C9.33331 18.4732 10.0357 20.1689 11.2859 21.4192C12.5362 22.6694 14.2319 23.3718 16 23.3718C17.7681 23.3718 19.4638 22.6694 20.714 21.4192C21.9643 20.1689 22.6666 18.4732 22.6666 16.7051C22.6666 14.937 21.9643 13.2413 20.714 11.9911C19.4638 10.7408 17.7681 10.0385 16 10.0385ZM12 16.7051C12 17.766 12.4214 18.7834 13.1716 19.5335C13.9217 20.2837 14.9391 20.7051 16 20.7051C17.0608 20.7051 18.0783 20.2837 18.8284 19.5335C19.5786 18.7834 20 17.766 20 16.7051C20 15.6443 19.5786 14.6268 18.8284 13.8767C18.0783 13.1265 17.0608 12.7051 16 12.7051C14.9391 12.7051 13.9217 13.1265 13.1716 13.8767C12.4214 14.6268 12 15.6443 12 16.7051Z" fill="#797271"/>
<path d="M24 7.37183C23.6463 7.37183 23.3072 7.5123 23.0571 7.76235C22.8071 8.0124 22.6666 8.35154 22.6666 8.70516C22.6666 9.05878 22.8071 9.39792 23.0571 9.64797C23.3072 9.89802 23.6463 10.0385 24 10.0385C24.3536 10.0385 24.6927 9.89802 24.9428 9.64797C25.1928 9.39792 25.3333 9.05878 25.3333 8.70516C25.3333 8.35154 25.1928 8.0124 24.9428 7.76235C24.6927 7.5123 24.3536 7.37183 24 7.37183Z" fill="#797271"/>
<path fill-rule="evenodd" clip-rule="evenodd" d="M6.66665 2.03845C5.25216 2.03845 3.8956 2.60036 2.89541 3.60055C1.89522 4.60074 1.33331 5.9573 1.33331 7.37179V26.0385C1.33331 27.4529 1.89522 28.8095 2.89541 29.8097C3.8956 30.8099 5.25216 31.3718 6.66665 31.3718H25.3333C26.7478 31.3718 28.1044 30.8099 29.1045 29.8097C30.1047 28.8095 30.6666 27.4529 30.6666 26.0385V7.37179C30.6666 5.9573 30.1047 4.60074 29.1045 3.60055C28.1044 2.60036 26.7478 2.03845 25.3333 2.03845H6.66665ZM25.3333 4.70512H6.66665C5.9594 4.70512 5.28113 4.98607 4.78103 5.48617C4.28093 5.98626 3.99998 6.66454 3.99998 7.37179V26.0385C3.99998 26.7457 4.28093 27.424 4.78103 27.9241C5.28113 28.4242 5.9594 28.7051 6.66665 28.7051H25.3333C26.0406 28.7051 26.7188 28.4242 27.2189 27.9241C27.719 27.424 28 26.7457 28 26.0385V7.37179C28 6.66454 27.719 5.98626 27.2189 5.48617C26.7188 4.98607 26.0406 4.70512 25.3333 4.70512Z" fill="#797271"/>
</svg>
