<svg width="297" height="52" viewBox="0 0 297 52" fill="none" xmlns="http://www.w3.org/2000/svg">
<path fill-rule="evenodd" clip-rule="evenodd" d="M25.942 8.50046C24.4783 8.30016 23.0994 6.92122 22.8991 5.45753C22.7181 4.13636 22.121 2.86527 21.1042 1.85225C18.6275 -0.624457 14.6023 -0.616758 12.1141 1.87151C9.6258 4.35977 9.61809 8.38491 12.0948 10.8616C13.1078 11.8746 14.3828 12.4717 15.7039 12.6565C17.1676 12.8568 18.5466 14.2358 18.7469 15.6995C18.9279 17.0206 19.5249 18.2917 20.5418 19.3048C23.0185 21.7815 27.0436 21.7738 29.5319 19.2855C32.0202 16.7972 32.0279 12.7721 29.5512 10.2954C28.5381 9.28237 27.2632 8.68534 25.942 8.50046Z" fill="#E396A1"/>
<path fill-rule="evenodd" clip-rule="evenodd" d="M36.1895 39.3422C34.7258 39.142 33.3468 37.763 33.1465 36.2993C32.9655 34.9782 32.3685 33.7071 31.3516 32.694C28.8749 30.2173 24.8498 30.225 22.3615 32.7133C19.8732 35.2016 19.8655 39.2267 22.3422 41.7034C23.3553 42.7164 24.6302 43.3135 25.9514 43.4983C27.4151 43.6986 28.794 45.0776 28.9943 46.5413C29.1753 47.8624 29.7724 49.1335 30.7892 50.1466C33.2659 52.6233 37.2911 52.6156 39.7793 50.1273C42.2676 47.639 42.2753 43.6139 39.7986 41.1372C38.7856 40.1242 37.5106 39.5271 36.1895 39.3422Z" fill="#B2CE7C"/>
<path fill-rule="evenodd" clip-rule="evenodd" d="M43.4957 26.0999C43.696 24.6362 45.0749 23.2572 46.5386 23.0569C47.8598 22.8759 49.1308 22.2789 50.1477 21.262C52.6244 18.7853 52.6167 14.7602 50.1285 12.2719C47.6402 9.78363 43.6151 9.77593 41.1384 12.2526C40.1253 13.2657 39.5283 14.5406 39.3434 15.8579C39.1431 17.3216 37.7642 18.7005 36.3005 18.9008C34.9793 19.0819 33.7082 19.6789 32.6914 20.6958C30.2147 23.1725 30.2224 27.1976 32.7106 29.6859C35.1989 32.1741 39.224 32.1819 41.7007 29.7052C42.7137 28.6921 43.3108 27.4172 43.4957 26.0999Z" fill="#F2C56B"/>
<path fill-rule="evenodd" clip-rule="evenodd" d="M12.6565 36.3537C12.8568 34.89 14.2358 33.511 15.6995 33.3107C17.0206 33.1297 18.2917 32.5327 19.3086 31.5158C21.7853 29.0391 21.7776 25.0139 19.2894 22.5257C16.8011 20.0374 12.776 20.0297 10.2992 22.5064C9.28622 23.5194 8.68919 24.7944 8.50431 26.1117C8.30401 27.5754 6.92507 28.9543 5.46139 29.1546C4.14022 29.3357 2.86912 29.9327 1.85225 30.9496C-0.624459 33.4263 -0.616756 37.4514 1.87151 39.9397C4.35977 42.4279 8.3849 42.4356 10.8616 39.9589C11.8746 38.9459 12.4717 37.671 12.6565 36.3537Z" fill="#8ECCED"/>
<path fill-rule="evenodd" clip-rule="evenodd" d="M88.2238 10.245C87.6307 10.1949 87.0336 10.168 86.4289 10.168C74.8621 10.168 65.483 19.5317 65.483 31.0833C65.483 42.6348 74.8621 51.9985 86.4289 51.9985C97.9958 51.9985 107.051 42.9545 107.367 31.6803H98.9818C98.6698 38.3323 93.1695 43.6324 86.4289 43.6324C79.6883 43.6324 73.8606 38.0126 73.8606 31.0833C73.8606 24.1539 79.488 18.5341 86.4289 18.5341C87.0375 18.5341 87.6384 18.5765 88.2238 18.6612V10.245Z" fill="#797271"/>
<path fill-rule="evenodd" clip-rule="evenodd" d="M134.463 43.5027C140.503 43.5027 145.402 38.6109 145.402 32.579C145.402 26.5471 140.507 21.6553 134.463 21.6553C128.42 21.6553 123.524 26.5471 123.524 32.579C123.524 38.6109 128.42 43.5027 134.463 43.5027ZM115.02 32.579C115.02 43.3062 123.725 51.9998 134.467 51.9998C145.21 51.9998 153.915 43.3062 153.915 32.579C153.915 21.8517 145.21 13.1582 134.467 13.1582C123.725 13.1582 115.02 21.8517 115.02 32.579Z" fill="#797271"/>
<path fill-rule="evenodd" clip-rule="evenodd" d="M180.95 43.5408C175.811 42.4584 171.975 38.1829 171.975 33.0793L171.84 0H162.865L163 33.0793C163 42.8012 170.831 50.8245 180.95 51.9993V43.5408Z" fill="#797271"/>
<path fill-rule="evenodd" clip-rule="evenodd" d="M252.412 43.5408C247.701 42.4584 244.184 38.1829 244.184 33.0793L244.049 0H235.822L235.957 33.0793C235.957 42.8012 243.137 50.8245 252.412 51.9993V43.5408Z" fill="#797271"/>
<path fill-rule="evenodd" clip-rule="evenodd" d="M219.096 48.1753V50.5056H226.576V28.0958H218.395V32.8759C218.395 38.8154 213.684 43.634 207.875 43.634C202.067 43.634 197.356 38.8192 197.356 32.8759V28.0958H189.175V32.8759C189.175 43.4376 197.545 52.0001 207.872 52.0001C212.082 52.0001 215.964 50.5788 219.092 48.1753H219.096Z" fill="#797271"/>
<path fill-rule="evenodd" clip-rule="evenodd" d="M289.108 48.1753V50.5056H296.589V28.0958H288.407V32.8759C288.407 38.8154 283.697 43.634 277.888 43.634C272.08 43.634 267.373 38.8192 267.373 32.8759V28.0958H259.192V32.8759C259.192 43.4376 267.565 52.0001 277.888 52.0001C282.098 52.0001 285.981 50.5788 289.108 48.1753Z" fill="#797271"/>
</svg>
