<svg width="32" height="32" viewBox="0 0 32 32" fill="none" xmlns="http://www.w3.org/2000/svg">
<g clip-path="url(#clip0_76_101)">
<path d="M26.6133 11.9467C25.72 10.96 24.3733 10.3867 22.5067 10.1867V9.17336C22.5067 7.3467 21.7333 5.5867 20.3733 4.36003C19 3.1067 17.2133 2.52003 15.36 2.69336C12.1733 3.00003 9.49334 6.08003 9.49334 9.41336V10.1867C7.62667 10.3867 6.28001 10.96 5.38667 11.9467C4.09334 13.3867 4.13334 15.3067 4.28001 16.64L5.21334 24.0667C5.49334 26.6667 6.54667 29.3334 12.28 29.3334H19.72C25.4533 29.3334 26.5067 26.6667 26.7867 24.08L27.72 16.6267C27.8667 15.3067 27.8933 13.3867 26.6133 11.9467ZM15.5467 4.5467C16.88 4.4267 18.1467 4.84003 19.1333 5.73336C20.1067 6.61336 20.6533 7.8667 20.6533 9.17336V10.1067H11.3467V9.41336C11.3467 7.04003 13.3067 4.76003 15.5467 4.5467ZM11.2267 17.5334H11.2133C10.48 17.5334 9.88001 16.9334 9.88001 16.2C9.88001 15.4667 10.48 14.8667 11.2133 14.8667C11.96 14.8667 12.56 15.4667 12.56 16.2C12.56 16.9334 11.96 17.5334 11.2267 17.5334ZM20.56 17.5334H20.5467C19.8133 17.5334 19.2133 16.9334 19.2133 16.2C19.2133 15.4667 19.8133 14.8667 20.5467 14.8667C21.2933 14.8667 21.8933 15.4667 21.8933 16.2C21.8933 16.9334 21.2933 17.5334 20.56 17.5334Z" fill="white"/>
</g>
<defs>
<clipPath id="clip0_76_101">
<rect width="32" height="32" fill="white"/>
</clipPath>
</defs>
</svg>
