<svg width="32" height="32" viewBox="0 0 32 32" fill="none" xmlns="http://www.w3.org/2000/svg">
<path d="M16 2.66663C12.5067 2.66663 9.66669 5.50663 9.66669 8.99996C9.66669 12.4266 12.3467 15.2 15.84 15.32C15.9467 15.3066 16.0534 15.3066 16.1334 15.32C16.16 15.32 16.1734 15.32 16.2 15.32C16.2134 15.32 16.2134 15.32 16.2267 15.32C19.64 15.2 22.32 12.4266 22.3334 8.99996C22.3334 5.50663 19.4934 2.66663 16 2.66663Z" fill="white"/>
<path d="M22.7733 18.8683C19.0533 16.3883 12.9866 16.3883 9.23995 18.8683C7.54661 20.0016 6.61328 21.535 6.61328 23.175C6.61328 24.815 7.54661 26.335 9.22661 27.455C11.0933 28.7083 13.5466 29.335 15.9999 29.335C18.4533 29.335 20.9066 28.7083 22.7733 27.455C24.4533 26.3216 25.3866 24.8016 25.3866 23.1483C25.3733 21.5083 24.4533 19.9883 22.7733 18.8683Z" fill="white"/>
</svg>
