<svg width="32" height="33" viewBox="0 0 32 33" fill="none" xmlns="http://www.w3.org/2000/svg">
<g clip-path="url(#clip0_86_26)">
<path d="M29.4423 9.92143C29.284 9.32575 28.972 8.78209 28.5376 8.34486C28.1032 7.90764 27.5615 7.59218 26.9669 7.43007C24.7778 6.84143 16.0278 6.84143 16.0278 6.84143C16.0278 6.84143 7.27777 6.84143 5.08868 7.43007C4.49402 7.59218 3.95237 7.90764 3.51794 8.34486C3.08351 8.78209 2.77153 9.32575 2.61323 9.92143C2.02777 12.1201 2.02777 16.7051 2.02777 16.7051C2.02777 16.7051 2.02777 21.2901 2.61323 23.4887C2.77153 24.0844 3.08351 24.628 3.51794 25.0653C3.95237 25.5025 4.49402 25.818 5.08868 25.9801C7.27777 26.5687 16.0278 26.5687 16.0278 26.5687C16.0278 26.5687 24.7778 26.5687 26.9669 25.9801C27.5615 25.818 28.1032 25.5025 28.5376 25.0653C28.972 24.628 29.284 24.0844 29.4423 23.4887C30.0278 21.2901 30.0278 16.7051 30.0278 16.7051C30.0278 16.7051 30.0278 12.1201 29.4423 9.92143Z" fill="#797271"/>
<path d="M13.1642 20.8686V12.5417L20.4823 16.7052L13.1642 20.8686Z" fill="#F3EADE"/>
</g>
<defs>
<clipPath id="clip0_86_26">
<rect width="28" height="28" fill="white" transform="translate(2 2.70508)"/>
</clipPath>
</defs>
</svg>
